<svg width="24" height="24" viewBox="0 0 24 24" fill="none" xmlns="http://www.w3.org/2000/svg">
    <path
        d="M4.31756 4.66388H17.7273C17.7677 4.66388 17.8045 4.67932 17.8424 4.69091L18.172 3.58959C18.2768 3.23936 18.5945 3 18.9546 3H20.5909C20.8168 3 21 3.18625 21 3.41598V4.2479C21 4.47763 20.8168 4.66388 20.5909 4.66388H19.5606L17.0045 13.2046L17.9592 14.337C18.3365 14.7846 18.5064 15.4013 18.3327 15.9637C18.1106 16.683 17.4863 17.1429 16.7664 17.1429H5.04545C4.81951 17.1429 4.63634 16.9566 4.63634 16.7269V15.895C4.63634 15.6652 4.81951 15.479 5.04545 15.479H16.7665L15.4697 13.9406C15.4371 13.9019 15.4131 13.8583 15.3884 13.8151H7.46083C6.82676 13.8151 6.24975 13.4428 5.97975 12.8594L3.12503 6.69125C3.04315 6.51374 3 6.31673 3 6.12131V6.0035C3 5.26369 3.5899 4.66388 4.31756 4.66388Z"
        fill="#F9FBFF" />
    <path
        d="M16.1786 21C15.291 21 14.5715 20.2805 14.5715 19.3929C14.5715 18.5053 15.291 17.7857 16.1786 17.7857C17.0662 17.7857 17.7858 18.5053 17.7858 19.3929C17.7858 20.2805 17.0662 21 16.1786 21Z"
        fill="white" />
    <path
        d="M6.53568 21C5.64808 21 4.92854 20.2805 4.92854 19.3929C4.92854 18.5053 5.64808 17.7857 6.53568 17.7857C7.42328 17.7857 8.14282 18.5053 8.14282 19.3929C8.14282 20.2805 7.42328 21 6.53568 21Z"
        fill="white" />
</svg>