<svg width="40" height="40" viewBox="0 0 40 40" fill="none" xmlns="http://www.w3.org/2000/svg">
<g clip-path="url(#clip0_0_31)">
<path d="M15.9947 25.0295C13.7456 21.2007 13.7403 17.2203 13.9689 15.3682C8.6998 17.8756 5.54683 23.2586 7.66831 28.0839C10.1673 28.333 13.6712 27.5749 15.9947 25.0295Z" fill="#415167"/>
<path d="M16.5742 25.9556C14.5219 28.1326 10.9967 29.362 8.30634 29.1995C10.7628 32.7467 17.2973 34.3064 23.1832 30.8837C20.663 30.2718 18.2863 28.4846 16.5742 25.9556Z" fill="#415167"/>
<path d="M22.7313 18.0055C19.2115 14.1063 18.919 10.3858 19.4029 7.94336C15.7661 10.0284 13.9902 15.3735 15.4152 20.8216C17.0049 27.0495 22.6569 31.761 27.9579 29.389C28.1227 27.6398 27.9047 23.7135 22.7313 18.0055Z" fill="#415167"/>
<path d="M32.5251 16.2347C30.9088 10.0284 25.512 5.7393 20.5992 7.39646C19.8814 9.73057 19.9824 13.4836 23.5341 17.3069C25.1452 19.2024 29.1276 23.6919 29.0531 28.7771C32.3178 26.4809 33.8437 21.4119 32.5251 16.2347Z" fill="#415167"/>
</g>
<defs>
<clipPath id="clip0_0_31">
<rect width="40" height="40" fill="white"/>
</clipPath>
</defs>
</svg>
