<svg width="114" height="114" viewBox="0 0 114 114" fill="none" xmlns="http://www.w3.org/2000/svg">
<path d="M89.2939 65.7328C87.8577 68.7281 84.7872 70.8031 81.2222 70.8031V65.7328H37.7778V70.8031C34.2115 70.8031 31.1423 68.7281 29.7061 65.7328H25V93.6194H94V65.7328H89.2939Z" fill="#C7A17A"/>
<path fill-rule="evenodd" clip-rule="evenodd" d="M91.2119 60.4464H95.0268C97.13 60.4464 98.8417 62.1511 98.8417 64.2459V94.6427C98.8417 96.7374 97.13 98.4421 95.0268 98.4421H23.8155C21.7122 98.4421 20.0006 96.7374 20.0006 94.6427V64.2471C20.0006 62.1524 21.7122 60.4477 23.8155 60.4477H27.6304V59.1812C27.6304 55.0588 30.2105 51.3581 33.9885 49.8219V45.7426C30.2105 44.2063 27.6304 40.5057 27.6304 36.3833V35.1168C23.4226 35.1168 20.0006 31.7087 20.0006 27.5179C20.0006 23.3271 23.4226 19.919 27.6304 19.919H91.2119C95.4197 19.919 98.8417 23.3271 98.8417 27.5179C98.8417 31.7087 95.4197 35.1168 91.2119 35.1168V36.3833C91.2119 40.5057 88.6317 44.2076 84.8537 45.7426V49.8206C88.6317 51.3569 91.2119 55.0588 91.2119 59.1799V60.4464ZM88.6687 61.7129V59.1799C88.6687 56.4494 87.1554 53.9684 84.8538 52.6284V54.114C84.8538 54.6206 84.7495 55.1031 84.5676 55.5464C85.5366 56.4823 86.1254 57.7792 86.1254 59.1799V61.7129C86.1254 64.0698 84.5015 66.0557 82.3105 66.6192V69.2067C85.9143 68.6013 88.6687 65.4718 88.6687 61.7129ZM40.3467 35.1168V36.3833C40.3467 36.6784 40.2831 36.9646 40.184 37.2369C39.5291 36.7113 38.7076 36.3833 37.8035 36.3833C36.8993 36.3833 36.0779 36.7113 35.423 37.2369C35.3238 36.9646 35.2602 36.6784 35.2602 36.3833V35.1168H40.3467ZM36.5318 40.1827V54.114C36.5318 54.8119 37.1028 55.3805 37.8034 55.3805C38.5041 55.3805 39.0751 54.8119 39.0751 54.114V40.1827C39.0751 39.4849 38.5041 38.9163 37.8034 38.9163C37.1028 38.9163 36.5318 39.4849 36.5318 40.1827ZM41.5738 39.7407C42.4016 38.8175 42.8899 37.6321 42.8899 36.3833V35.1168H45.4332V36.3833C45.4332 39.1138 43.92 41.5949 41.6183 42.9348V40.1827C41.6183 40.0758 41.6042 39.972 41.5901 39.8683L41.5901 39.8682L41.5901 39.8682L41.5901 39.8682L41.5901 39.8681L41.5901 39.8681L41.5901 39.8681L41.5901 39.868L41.5901 39.868C41.5843 39.8256 41.5786 39.7833 41.5738 39.7407ZM35.9965 57.4398C35.5489 57.9021 35.2602 58.5087 35.2602 59.18V60.4464H40.3467V59.18C40.3467 58.51 40.0581 57.9021 39.6104 57.4398C39.07 57.7324 38.4609 57.9135 37.8035 57.9135C37.146 57.9135 36.5369 57.7324 35.9965 57.4398ZM41.3323 55.5464C41.5141 55.1044 41.6184 54.6219 41.6184 54.114V52.6284C43.92 53.9696 45.4333 56.4507 45.4333 59.1799V60.4464H42.89V59.1799C42.89 57.7792 42.3012 56.4811 41.3323 55.5464ZM41.6184 45.7426V49.8207C45.3964 51.3569 47.9765 55.0576 47.9765 59.1812V60.4477H70.8659V59.1812C70.8659 55.0588 73.446 51.3569 77.224 49.8219V45.7426C73.446 44.2064 70.8659 40.5044 70.8659 36.3833V35.1168H47.9765V36.3833C47.9765 40.5057 45.3964 44.2064 41.6184 45.7426ZM79.7673 54.114V40.1827C79.7673 39.4849 80.3383 38.9163 81.0389 38.9163C81.7396 38.9163 82.3106 39.4849 82.3106 40.1827V54.114C82.3106 54.8119 81.7396 55.3805 81.0389 55.3805C80.3383 55.3805 79.7673 54.8119 79.7673 54.114ZM83.4193 37.2369C83.5185 36.9646 83.5821 36.6784 83.5821 36.3833V35.1168H78.4956V36.3833C78.4956 36.6784 78.5592 36.9646 78.6584 37.2369C79.3133 36.7113 80.1347 36.3833 81.0389 36.3833C81.943 36.3833 82.7645 36.7113 83.4193 37.2369ZM77.2685 39.7407C77.264 39.7778 77.2589 39.8147 77.2539 39.8514C77.2389 39.9605 77.224 40.0691 77.224 40.1827V42.9348C74.9223 41.5936 73.4091 39.1126 73.4091 36.3833V35.1168H75.9523V36.3833C75.9523 37.6333 76.4406 38.8175 77.2685 39.7407ZM77.224 52.6284C74.9223 53.9684 73.4091 56.4494 73.4091 59.1799V60.4464H75.9523V59.1799C75.9523 57.7792 76.5411 56.4823 77.5101 55.5464C77.3282 55.1031 77.224 54.6206 77.224 54.114V52.6284ZM78.4956 59.18C78.4956 58.5087 78.7843 57.9021 79.2319 57.4398C79.7723 57.7324 80.3814 57.9135 81.0389 57.9135C81.6963 57.9135 82.3054 57.7324 82.8458 57.4398C83.2935 57.9021 83.5821 58.51 83.5821 59.18V60.4464H78.4956V59.18ZM84.8538 42.9347C87.1554 41.5948 88.6687 39.1138 88.6687 36.3832V33.8503C88.6687 30.0914 85.9143 26.9619 82.3105 26.3565V28.9439C84.5015 29.5088 86.1254 31.4946 86.1254 33.8503V36.3832C86.1254 37.6333 85.6371 38.8174 84.8093 39.7419C84.814 39.7837 84.8197 39.8253 84.8253 39.8669L84.8254 39.8673C84.8396 39.971 84.8538 40.0752 84.8538 40.1827V42.9347ZM22.5439 27.5179C22.5439 24.724 24.8252 22.452 27.6304 22.452H91.2119C94.0171 22.452 96.2984 24.724 96.2984 27.5179C96.2984 30.3117 94.0171 32.5838 91.2119 32.5838H91.1242C90.4947 27.5939 86.2169 23.7184 81.0389 23.7184H79.7672V31.3173H81.0389C81.9761 31.3173 82.7874 31.8303 83.2286 32.5838H35.6137C36.055 31.8303 36.8663 31.3173 37.8035 31.3173H39.0751V23.7184H37.8035C32.6254 23.7184 28.3476 27.5939 27.7182 32.5838H27.6304C24.8252 32.5838 22.5439 30.3117 22.5439 27.5179ZM30.1737 35.1168V36.3832C30.1737 39.1138 31.6869 41.5948 33.9886 42.9347V40.1827C33.9886 40.0702 34.0035 39.9619 34.0184 39.8531C34.0235 39.8162 34.0286 39.7792 34.0331 39.7419C33.2052 38.8174 32.7169 37.632 32.7169 36.3832V33.8503C32.7169 31.4934 34.3408 29.5075 36.5318 28.9439V26.3565C32.928 26.9619 30.1737 30.0914 30.1737 33.8503V35.1168ZM30.1737 59.1799C30.1737 56.4494 31.6869 53.9684 33.9886 52.6284V54.114C33.9886 54.6219 34.0928 55.1031 34.2747 55.5464C33.3057 56.4823 32.7169 57.7792 32.7169 59.1799V61.7129C32.7169 64.0685 34.3408 66.0544 36.5318 66.6192V69.2067C32.928 68.6013 30.1737 65.4718 30.1737 61.7129V60.4464V59.1799ZM95.0268 95.9079C95.7275 95.9079 96.2984 95.3392 96.2984 94.6414V64.2459C96.2984 63.548 95.7275 62.9794 95.0268 62.9794H91.1242C90.4947 67.9693 86.2169 71.8447 81.0389 71.8447H79.7672V64.2459H81.0389C81.9761 64.2459 82.7874 63.7329 83.2286 62.9794H35.6137C36.055 63.7329 36.8663 64.2459 37.8035 64.2459H39.0751V71.8447H37.8035C32.6254 71.8447 28.3476 67.9693 27.7182 62.9794H23.8155C23.1149 62.9794 22.5439 63.548 22.5439 64.2459V94.6414C22.5439 95.3392 23.1149 95.9079 23.8155 95.9079H95.0268Z" fill="#232C38"/>
<path d="M61.4799 70.0021V70.0061H61.4839L61.4799 70.0021Z" fill="#232C38"/>
<path fill-rule="evenodd" clip-rule="evenodd" d="M61.6913 70.2249C61.7382 70.2764 61.785 70.3278 61.8335 70.3782C66.9874 67.3842 73.0989 67.6742 76.7586 71.2191C78.7004 73.1024 79.7699 75.7265 79.7699 78.6078C79.7699 82.2755 78.0761 86.0217 75.1233 88.884C72.079 91.8362 68.1942 93.3597 64.5675 93.3597C61.7064 93.3597 59.0054 92.4111 57.0001 90.4684L57.0051 90.462C56.5245 90.519 56.0413 90.557 55.5491 90.557C51.9224 90.557 48.0389 89.0334 44.9933 86.0813C42.0406 83.2178 40.3468 79.4715 40.3468 75.8038C40.3468 72.9225 41.4162 70.2984 43.358 68.4164C47.9028 64.009 56.0324 64.7208 61.48 70.002C61.5541 70.0743 61.6227 70.1496 61.6913 70.2249ZM59.7061 71.8169C57.145 69.3334 53.9024 68.0403 50.9306 68.0403C49.1808 68.0403 47.5392 68.5076 46.1683 69.4233L62.1451 84.9123C63.0836 83.6231 63.582 82.0476 63.582 80.2783C63.582 77.2894 62.1693 74.2055 59.7061 71.8169ZM46.766 84.2676C44.3016 81.879 42.8901 78.7951 42.8901 75.8063C42.8901 74.037 43.3873 72.4615 44.327 71.1735L60.3101 86.6689C56.6161 89.1436 50.8365 88.214 46.766 84.2676ZM60.085 89.6552C63.7867 91.8994 69.3794 90.9141 73.3468 87.0691C75.8113 84.6805 77.224 81.5966 77.2228 78.6077C77.2228 76.8385 76.7243 75.2617 75.7858 73.9737L73.8542 75.8468L72.079 74.0319L73.942 72.2259C71.1495 70.3667 67.1133 70.425 63.4993 72.3741C65.0952 74.6576 66.0032 77.2513 66.0998 79.8286L70.562 75.5023L72.3372 77.3184L65.4831 83.9637C64.9757 85.3669 64.1835 86.6309 63.1153 87.6669C62.2277 88.5268 61.199 89.1816 60.085 89.6552Z" fill="#232C38"/>
<rect x="44.1616" y="24.9849" width="25.4326" height="2.53296" fill="#232C38"/>
<rect x="72.1375" y="24.9849" width="2.54326" height="2.53296" fill="#232C38"/>
</svg>
