<svg width="114" height="114" viewBox="0 0 114 114" fill="none" xmlns="http://www.w3.org/2000/svg">
<rect x="18.9999" y="66.0884" width="41.2203" height="26.2177" fill="#C7A17A"/>
<path d="M60.2204 73.9537H95V45.1143H56.356V52.9796H60.2204V73.9537Z" fill="#C7A17A"/>
<path fill-rule="evenodd" clip-rule="evenodd" d="M97 26.0691V20.8868C97 18.7439 95.2632 17 93.129 17H57C54.8658 17 53.129 18.7439 53.129 20.8868V26.0691C53.129 27.2131 53.6335 28.2328 54.4194 28.9453V50.6853H20.871C18.7368 50.6853 17 52.4292 17 54.5721V90.8486C17 94.4205 19.8942 97.3265 23.4516 97.3265H54.4194C54.8606 97.3265 55.2929 97.2812 55.7097 97.1957V97.3265H93.129C95.2632 97.3265 97 95.5827 97 93.4398V88.2574C97 87.1134 96.4955 86.0938 95.7097 85.3812V28.9453C96.4955 28.2328 97 27.2131 97 26.0691ZM94.4193 20.8868V26.0691C94.4193 26.783 93.84 27.3647 93.129 27.3647H87.9677V19.5912H93.129C93.84 19.5912 94.4193 20.1729 94.4193 20.8868ZM64.7419 19.5912V27.3647H69.9032V19.5912H64.7419ZM72.4838 19.5912H77.6451V27.3647H72.4838V19.5912ZM85.3871 19.5912H80.2258V27.3647H85.3871V19.5912ZM55.7096 20.8868C55.7096 20.1729 56.289 19.5912 56.9999 19.5912H62.1612V27.3647H56.9999C56.289 27.3647 55.7096 26.783 55.7096 26.0691V20.8868ZM19.5806 90.8486C19.5806 92.9915 21.3174 94.7353 23.4516 94.7353H54.4193C56.5535 94.7353 58.2903 92.9915 58.2903 90.8486V61.05H55.7096V58.4588H58.2903V54.5721C58.2903 53.8582 57.7109 53.2765 57 53.2765H20.8709C20.16 53.2765 19.5806 53.8582 19.5806 54.5721V58.4588H53.129V61.05H19.5806V90.8486ZM94.4194 93.4397C94.4194 94.1549 93.84 94.7353 93.129 94.7353H59.5471C60.3665 93.6496 60.871 92.3126 60.871 90.8486V86.9618H93.129C93.84 86.9618 94.4194 87.5422 94.4194 88.2574V93.4397ZM60.871 84.3706H93.1291V29.9559H57V50.6853C59.1342 50.6853 60.871 52.4292 60.871 54.5721V84.3706Z" fill="#151D28"/>
<path fill-rule="evenodd" clip-rule="evenodd" d="M72.5199 68.8068C75.5006 68.8068 78.787 67.4347 81.396 64.8164C85.8838 60.3103 86.6941 53.7935 83.2025 50.2876C79.7109 46.7818 73.2206 47.5954 68.7341 52.1014C64.2477 56.6075 63.4373 63.1243 66.9277 66.6289C68.3883 68.0968 70.3741 68.8068 72.5199 68.8068ZM79.5715 62.9844C76.5289 66.0381 72.436 67.046 69.7947 65.582L82.1599 53.1664C83.6154 55.8197 82.6141 59.9281 79.5715 62.9844ZM77.5935 50.6724C75.3006 50.6724 72.6761 51.806 70.5574 53.9334C67.5148 56.9897 66.5135 61.098 67.969 63.75L80.3187 51.35C79.5174 50.9069 78.5922 50.6724 77.5935 50.6724Z" fill="#151D28"/>
<path fill-rule="evenodd" clip-rule="evenodd" d="M32.6039 71.5352C28.1161 76.0413 27.3058 82.5581 30.7974 86.0639C32.2581 87.5318 34.2439 88.2418 36.3897 88.2418C39.3703 88.2418 42.6568 86.8698 45.2658 84.2514C49.7536 79.7454 50.5639 73.2285 47.0723 69.7227C43.582 66.2142 37.0916 67.0291 32.6039 71.5352ZM34.4283 73.3671C36.547 71.2411 39.1728 70.1074 41.4644 70.1074C42.4632 70.1074 43.3883 70.3419 44.1896 70.785L31.8399 83.1851C30.3844 80.5317 31.3857 76.4234 34.4283 73.3671ZM33.6658 85.0159C36.3071 86.4799 40.4 85.4719 43.4426 82.4182C46.4851 79.3619 47.4864 75.2536 46.031 72.6002L33.6658 85.0159Z" fill="#151D28"/>
</svg>
