<svg width="114" height="114" viewBox="0 0 114 114" fill="none" xmlns="http://www.w3.org/2000/svg">
<path d="M38.9661 50.5424C38.9661 46.7986 41.8502 43.7627 45.4068 43.7627H18.3559V54.6102H40.2542L40.2671 54.5885C39.4607 53.4563 38.9661 52.0664 38.9661 50.5424Z" fill="#C7A17A"/>
<rect x="67.3051" y="42.4067" width="28.339" height="13.5593" fill="#C7A17A"/>
<path fill-rule="evenodd" clip-rule="evenodd" d="M73.3432 27.0323C69.9084 21.6142 63.8748 18 57 18C50.1251 18 44.0903 21.6142 40.6568 27.0323H17V37.3548V63.1613V98H40.2258H73.7742H97V63.1613V37.3548V27.0323H73.3432ZM57 20.5806C66.249 20.5806 73.7742 28.1058 73.7742 37.3548V39.9355H94.4194V60.5806H73.7742H64.2826C66.92 58.4503 68.6129 55.1948 68.6129 51.5484V39.9355H45.3871V42.5161C41.1174 42.5161 37.6452 45.9884 37.6452 50.258C37.6452 54.5277 41.1174 58 45.3871 58H47.351C48.0052 58.9755 48.8052 59.8439 49.7174 60.5806H40.2258H19.5806V39.9355H40.2258V37.3548C40.2258 28.1058 47.751 20.5806 57 20.5806ZM42.8064 68.3225H71.1935V63.1613H42.8064V68.3225ZM47.9677 51.5484V42.5161H66.0322V51.5484C66.0322 56.529 61.9806 60.5806 57 60.5806C52.0193 60.5806 47.9677 56.529 47.9677 51.5484ZM45.3871 55.4194H46.0645C45.6335 54.2065 45.3871 52.9071 45.3871 51.5484V45.0968C42.5406 45.0968 40.2258 47.4116 40.2258 50.2581C40.2258 53.1045 42.5406 55.4194 45.3871 55.4194ZM19.5806 34.7741H32.4839V32.1935H19.5806V29.6129H39.2723C38.9084 30.4438 38.6103 31.307 38.3652 32.1935H35.0645V34.7741H37.8374C37.7239 35.6206 37.6452 36.4774 37.6452 37.3548H19.5806V34.7741ZM19.5806 63.1613V95.4193H40.2258V63.1613H19.5806ZM42.8064 70.9032H55.7097V95.4193H42.8064V70.9032ZM58.2903 70.9032V95.4193H71.1935V70.9032H58.2903ZM94.4193 95.4193H73.7742V63.1613H94.4193V95.4193ZM76.1626 34.7741C76.2761 35.6206 76.3548 36.4774 76.3548 37.3548H94.4193V34.7741H81.5161V32.1935H94.4193V29.6129H74.7277C75.0916 30.4438 75.3884 31.307 75.6348 32.1935H78.9355V34.7741H76.1626Z" fill="#232C38"/>
<path d="M58.2903 37.3548H60.871V35.0787C60.871 33.791 61.5871 32.6335 62.7381 32.0581C64.7703 31.0413 66.0322 29 66.0322 26.729V24.4516H63.4516V26.7277C63.4516 28.0155 62.7355 29.1729 61.5845 29.7484C59.5522 30.7651 58.2903 32.8064 58.2903 35.0774V37.3548Z" fill="#232C38"/>
<path d="M53.129 35.0787C53.129 33.791 53.8452 32.6335 54.9961 32.0581C57.0284 31.0413 58.2903 29 58.2903 26.729V24.4516H55.7097V26.7277C55.7097 28.0155 54.9936 29.1729 53.8426 29.7484C51.8103 30.7651 50.5484 32.8064 50.5484 35.0774V37.3548H53.129V35.0787Z" fill="#232C38"/>
<rect x="50.5484" y="78.6451" width="2.58064" height="5.16129" fill="#232C38"/>
<rect x="60.871" y="78.6451" width="2.58064" height="5.16129" fill="#232C38"/>
</svg>
