<svg width="144" height="114" viewBox="0 0 144 114" fill="none" xmlns="http://www.w3.org/2000/svg">
<path d="M36.4286 35.0735V35.8303C36.4286 41.6163 40.2222 47.0057 46.4984 50.1347H78.1482C84.4245 47.0057 88.2181 41.6163 88.2181 35.8303V35.0735H36.4286Z" fill="#C7A17A"/>
<path fill-rule="evenodd" clip-rule="evenodd" d="M110.017 17C115.41 17 119.796 20.4864 119.796 24.7735C119.796 28.1511 117.069 31.0235 113.277 32.0936V97.3252H31.7825C28.1869 97.3252 25.2629 95.0009 25.2629 92.1429C25.2629 89.2848 28.1869 86.9605 31.7825 86.9605H45.0024C43.5584 85.8385 42.4957 84.4134 41.9594 82.8172L37.355 81.5994C34.0219 80.7158 31.7825 78.2451 31.7825 75.4531V67.3764C31.7825 64.5844 34.0203 62.115 37.3534 61.2314L41.5618 60.1172V59.7544C41.5618 59.1831 41.7264 58.6441 42.0067 58.1557C39.8487 57.5092 38.302 55.8625 38.302 53.9243C38.302 51.863 40.0509 50.1386 42.4223 49.5893C37.7413 46.0678 35.0422 41.1653 35.0422 35.9195V32.5471C29.6489 32.5471 25.2629 29.0606 25.2629 24.7735C25.2629 20.4864 29.6489 17 35.0422 17H56.2307H72.5295H93.718H110.017ZM74.1595 20.8868C74.1595 20.1729 73.4277 19.5912 72.5296 19.5912H56.2308C55.3327 19.5912 54.6009 20.1729 54.6009 20.8868C54.6009 21.6006 55.3327 22.1824 56.2308 22.1824H72.5296C73.4277 22.1824 74.1595 21.6006 74.1595 20.8868ZM28.523 24.7735C28.523 21.9155 31.447 19.5912 35.0425 19.5912H51.6412C51.4587 19.998 51.3413 20.4307 51.3413 20.8868C51.3413 23.0297 53.5351 24.7735 56.231 24.7735H72.5298C75.2256 24.7735 77.4194 23.0297 77.4194 20.8868C77.4194 20.4307 77.3021 19.998 77.1195 19.5912H93.7182C97.3137 19.5912 100.238 21.9155 100.238 24.7735C100.238 27.6316 97.3137 29.9559 93.7182 29.9559H35.0425C31.447 29.9559 28.523 27.6316 28.523 24.7735ZM93.718 50.6853H100.238V45.5029H93.718V50.6853ZM93.718 61.05H100.238V66.2324H93.718V61.05ZM93.718 58.4588H100.238V53.2765H93.718V58.4588ZM90.4584 42.9118V50.6853V61.05V68.8236H100.238V86.9618H80.4982C82.617 85.3138 83.9388 83.0206 83.9388 80.4839V59.7544C83.9388 59.1831 83.7742 58.6441 83.4939 58.1557C85.6518 57.5079 87.1986 55.8625 87.1986 53.9243C87.1986 51.8643 85.4497 50.1399 83.0783 49.5892C87.7593 46.0665 90.4584 41.164 90.4584 35.9195V32.5471H93.7181H100.238V42.9118H90.4584ZM87.1986 35.9195V32.5471H38.3022V35.9195C38.3022 36.978 38.4684 38.0106 38.7145 39.025H46.4516C50.9451 39.025 54.601 41.931 54.601 45.5029V49.3897H78.1576C83.8182 46.3619 87.1986 41.3597 87.1986 35.9195ZM39.6093 41.6162H46.4516C49.1474 41.6162 51.3412 43.3601 51.3412 45.503V49.3897H47.3431C43.746 47.4645 41.0779 44.7451 39.6093 41.6162ZM81.4938 51.981H44.0066C42.6587 51.981 41.5617 52.8529 41.5617 53.9243C41.5617 54.9958 42.6587 55.8677 44.0066 55.8677H81.4938C82.8417 55.8677 83.9387 54.9958 83.9387 53.9243C83.9387 52.8529 82.8417 51.981 81.4938 51.981ZM35.0424 75.4531V67.3764C35.0424 65.7012 36.3854 64.2191 38.3853 63.6879L41.5619 62.847V79.9838L38.3853 79.143C36.3854 78.6105 35.0424 77.1283 35.0424 75.4531ZM44.8216 59.7545V80.4839C44.8216 84.0558 48.4774 86.9618 52.971 86.9618H72.5296C77.0232 86.9618 80.679 84.0558 80.679 80.4839V59.7545C80.679 59.0393 79.9472 58.4589 79.0491 58.4589H46.4515C45.5534 58.4589 44.8216 59.0393 44.8216 59.7545ZM110.017 94.7353H31.7827C29.985 94.7353 28.523 93.5732 28.523 92.1442C28.523 90.7151 29.985 89.553 31.7827 89.553H52.9712H72.5298H103.498V68.8236V61.05V50.6853V42.9118V32.5471H110.017V94.7353ZM100.987 29.9559H110.017C113.612 29.9559 116.536 27.6316 116.536 24.7735C116.536 21.9155 113.612 19.5912 110.017 19.5912H100.987C102.542 20.9684 103.497 22.7809 103.497 24.7735C103.497 26.7662 102.542 28.5787 100.987 29.9559Z" fill="#151D28"/>
<rect x="74.1594" y="61.05" width="3.25976" height="2.59118" fill="#333333"/>
<rect x="48.0815" y="61.05" width="22.8183" height="2.59118" fill="#333333"/>
</svg>
