<svg width="40" height="40" viewBox="0 0 40 40" fill="none" xmlns="http://www.w3.org/2000/svg">
<g clip-path="url(#clip0_0_24)">
<path d="M19.0193 8.44206C18.8589 8.16355 18.5115 8.0278 18.2456 8C17.9273 8.00523 17.6374 8.18446 17.4864 8.46909L14.375 14.3315L16.0068 16.2143L17.5155 13.7653C17.8364 13.2449 18.6838 13.2449 19.0047 13.7653L20.5135 16.2142L22.2852 14.1221L19.0193 8.44206Z" fill="#415167"/>
<path d="M23.75 16.6974L23.2335 15.7976L21.152 18.3423C20.9802 18.5813 20.7313 18.7374 20.4102 18.7069C20.1192 18.6964 19.8522 18.5394 19.6977 18.2882L18.2451 15.9268L16.7925 18.2882C16.638 18.5394 16.371 18.6964 16.08 18.7069C16.0689 18.7078 16.0577 18.7078 16.0474 18.7078C15.7675 18.7078 15.504 18.5725 15.3382 18.3423L13.4435 16.0585L5.10463 31.6836C4.95869 31.9602 4.96555 32.2951 5.12438 32.5647C5.2832 32.8351 5.56996 33 5.879 33H15.7786C15.5262 32.2774 15.5704 31.4708 15.9485 30.7904L23.75 16.6974Z" fill="#415167"/>
<path d="M26.9508 17.4095C26.6387 16.8479 25.7246 16.8479 25.4124 17.4095L23.5742 20.7139L26.1816 23.5954L28.7891 20.7139L26.9508 17.4095Z" fill="#415167"/>
<path d="M34.8866 31.6703L29.6612 22.3452L26.8278 25.5413C26.6605 25.7443 26.4133 25.8619 26.1524 25.8619C25.8915 25.8619 25.6443 25.7443 25.4769 25.5413L22.6436 22.3452L17.4767 31.6703C17.3231 31.9466 17.3257 32.2846 17.4836 32.5583C17.6415 32.8319 17.9298 33 18.2422 33H34.121C34.4334 33 34.7218 32.8318 34.8797 32.5582C35.0376 32.2846 35.0402 31.9465 34.8866 31.6703Z" fill="#415167"/>
</g>
<defs>
<clipPath id="clip0_0_24">
<rect width="40" height="40" fill="white"/>
</clipPath>
</defs>
</svg>
