<svg
    aria-hidden="true"
    xmlns="http://www.w3.org/2000/svg"
    style="position:absolute;width:0;height:0;overflow:hidden"
>
    <defs>
        <symbol
            id="icon-cart"
            viewBox="0 0 32 32"
        >
            <path
                fill="#f9fbff"
                d="M5.757 6.218h17.88c.054 0 .103.021.153.036l.439-1.468c.14-.467.563-.786 1.043-.786h2.182a.55.55 0 0 1 .545.555v1.109a.55.55 0 0 1-.545.555H26.08l-3.408 11.388 1.273 1.51c.503.597.73 1.419.498 2.169-.296.959-1.129 1.572-2.088 1.572H6.727a.55.55 0 0 1-.545-.555v-1.109a.55.55 0 0 1 .545-.555h15.628l-1.729-2.051c-.043-.052-.075-.11-.108-.167H9.948a2.18 2.18 0 0 1-1.975-1.274L4.167 8.923A1.83 1.83 0 0 1 4 8.163v-.157c0-.986.787-1.786 1.757-1.786z"
                style="fill:var(--color1, #f9fbff)"
            ></path>
            <path
                fill="#fff"
                d="M21.571 28a2.143 2.143 0 1 1 0-4.286 2.143 2.143 0 0 1 0 4.286zM8.714 28a2.143 2.143 0 1 1 0-4.286 2.143 2.143 0 0 1 0 4.286z"
                style="fill:var(--color2, #fff)"
            ></path>
        </symbol>
        <symbol
            id="icon-feature-1"
            viewBox="0 0 32 32"
        >
            <path
                fill="#c7a17a"
                d="M10.938 14.187c0-1.051.81-1.903 1.808-1.903H5.153v3.045l6.151-.006a1.953 1.953 0 0 1-.365-1.136zM18.893 11.904h7.955v3.806h-7.955v-3.806z"
                style="fill:var(--color3, #c7a17a)"
            ></path>
            <path
                fill="#232c38"
                d="M20.588 7.588C19.624 6.067 17.93 5.053 16 5.053s-3.624 1.014-4.588 2.535H4.771v19.921h22.456V7.588h-6.64zM16 5.777a4.714 4.714 0 0 1 4.709 4.709v.724h5.795v5.795h-8.459a3.255 3.255 0 0 0 1.216-2.535v-3.26h-6.52v.724c-1.198 0-2.173.975-2.173 2.173s.975 2.173 2.173 2.173h.551c.184.274.408.518.664.724H5.497v-5.795h5.795v-.724a4.714 4.714 0 0 1 4.709-4.709zm-3.984 13.401v-1.449h7.968v1.449h-7.968zm1.449-4.708v-2.535h5.071v2.535c0 1.398-1.137 2.535-2.535 2.535s-2.535-1.137-2.535-2.535zm-.725 1.086c-.799 0-1.449-.65-1.449-1.449s.65-1.449 1.449-1.449v1.811c0 .381.069.746.19 1.087h-.19zM5.496 9.761h3.622v-.724H5.496v-.724h5.527a5.446 5.446 0 0 0-.255.724h-.927v.724h.778a5.41 5.41 0 0 0-.054.724H5.494v-.724zm0 7.969h5.795v9.055H5.496V17.73zm6.52 2.173h3.622v6.882h-3.622v-6.882zm4.346 0h3.622v6.882h-3.622v-6.882zm10.142 6.881h-5.795v-9.055h5.795v9.055zM21.379 9.761h.778v-.724h-.927a5.26 5.26 0 0 0-.255-.724h5.527v.724H22.88v.724h3.622v.724h-5.071c0-.246-.022-.487-.054-.724z"
                style="fill:var(--color4, #232c38)"
            ></path>
            <path
                fill="#232c38"
                d="M16.362 10.486h.724v-.639c0-.361.201-.686.524-.848.57-.285.925-.858.925-1.496v-.639h-.724v.639a.943.943 0 0 1-.524.848c-.57.285-.925.858-.925 1.496v.639zM14.913 9.847c0-.361.201-.686.524-.848.57-.285.925-.858.925-1.496v-.639h-.724v.639a.943.943 0 0 1-.524.848c-.57.285-.925.858-.925 1.496v.639h.724v-.639zM14.189 22.076h.724v1.449h-.724v-1.449zM17.087 22.076h.724v1.449h-.724v-1.449z"
                style="fill:var(--color4, #232c38)"
            ></path>
        </symbol>
        <symbol
            id="icon-feature-2"
            viewBox="0 0 32 32"
        >
            <path
                fill="#c7a17a"
                d="M25.065 18.451a2.51 2.51 0 0 1-2.266 1.423v-1.423H10.604v1.423a2.51 2.51 0 0 1-2.266-1.423H7.017v7.828h19.368v-7.828h-1.321z"
                style="fill:var(--color3, #c7a17a)"
            ></path>
            <path
                fill="#232c38"
                d="M25.603 16.967h1.071c.59 0 1.071.479 1.071 1.067v8.532a1.07 1.07 0 0 1-1.071 1.067H6.685a1.07 1.07 0 0 1-1.071-1.067v-8.532c0-.588.48-1.067 1.071-1.067h1.071v-.355c0-1.157.724-2.196 1.785-2.627V12.84a2.858 2.858 0 0 1-1.785-2.627v-.355c-1.181 0-2.142-.957-2.142-2.133s.961-2.133 2.142-2.133h17.847c1.181 0 2.142.957 2.142 2.133s-.961 2.133-2.142 2.133v.355a2.857 2.857 0 0 1-1.785 2.627v1.145a2.857 2.857 0 0 1 1.785 2.627v.355zm-.714.356v-.711c0-.766-.425-1.463-1.071-1.839v.417c0 .142-.029.278-.08.402.272.263.437.627.437 1.02v.711c0 .662-.456 1.219-1.071 1.377v.726a2.139 2.139 0 0 0 1.785-2.104zM11.325 9.857H9.897v.355a.7.7 0 0 0 .046.24c.184-.148.414-.24.668-.24s.484.092.668.24a.696.696 0 0 0 .046-.24v-.355zm-1.07 1.422v3.911a.356.356 0 0 0 .714 0v-3.911a.356.356 0 0 0-.714 0zm1.415-.124a.445.445 0 0 0 .005.036c.004.029.008.058.008.088v.773a2.142 2.142 0 0 0 1.071-1.839v-.355h-.714v.355c0 .351-.137.683-.369.942zm-1.566 4.968a.702.702 0 0 0-.207.488v.355h1.428v-.355a.7.7 0 0 0-.207-.488c-.152.082-.323.133-.507.133s-.356-.051-.507-.133zm1.498-.531c.272.262.437.627.437 1.02v.355h.714v-.355c0-.766-.425-1.463-1.071-1.839v.417c0 .143-.029.278-.08.402zm.08-2.752v1.145a2.858 2.858 0 0 1 1.785 2.628v.355h6.425v-.355c0-1.157.724-2.196 1.785-2.627v-1.145a2.857 2.857 0 0 1-1.785-2.627v-.355h-6.425v.355a2.857 2.857 0 0 1-1.785 2.627zm10.709 2.35a.356.356 0 0 0 .714 0v-3.911a.356.356 0 0 0-.714 0v3.911zm1.025-4.738a.696.696 0 0 0 .046-.24v-.355h-1.428v.355a.7.7 0 0 0 .046.24c.184-.148.414-.24.668-.24s.484.092.668.24zm-1.727.703a1.416 1.416 0 0 1-.369-.942v-.355h-.714v.355c0 .766.425 1.463 1.071 1.839v-.773c0-.032.004-.062.008-.093l.004-.031zm-.012 3.618a2.142 2.142 0 0 0-1.071 1.839v.355h.714v-.355c0-.393.165-.757.437-1.02a1.056 1.056 0 0 1-.08-.402v-.417zm.357 1.839v.355h1.428v-.355a.7.7 0 0 0-.207-.488c-.152.082-.323.133-.507.133s-.356-.051-.507-.133a.702.702 0 0 0-.207.488zm1.785-4.56a2.142 2.142 0 0 0 1.071-1.839v-.711a2.14 2.14 0 0 0-1.785-2.104v.726a1.427 1.427 0 0 1 1.071 1.377v.711c0 .351-.137.683-.369.943l.005.035c.004.029.008.058.008.089v.772zM6.328 7.724c0 .784.64 1.422 1.428 1.422h.025a2.854 2.854 0 0 1 2.831-2.489h.357V8.79h-.357a.714.714 0 0 0-.615.355h13.366a.714.714 0 0 0-.615-.355h-.357V6.657h.357a2.855 2.855 0 0 1 2.831 2.489h.025c.787 0 1.428-.638 1.428-1.422s-.64-1.422-1.428-1.422H7.757c-.787 0-1.428.638-1.428 1.422zM8.47 9.857v.355c0 .766.425 1.463 1.071 1.839v-.773c0-.032.004-.062.008-.093l.004-.031a1.416 1.416 0 0 1-.369-.943V9.5c0-.662.456-1.219 1.071-1.377v-.726A2.139 2.139 0 0 0 8.47 9.501v.355zm0 6.755v.711a2.14 2.14 0 0 0 1.785 2.104v-.726a1.427 1.427 0 0 1-1.071-1.377v-.711c0-.393.165-.757.437-1.02a1.052 1.052 0 0 1-.08-.402v-.417a2.142 2.142 0 0 0-1.071 1.839zm18.204 10.31c.197 0 .357-.16.357-.355v-8.532a.356.356 0 0 0-.357-.355h-1.095a2.855 2.855 0 0 1-2.831 2.489h-.357v-2.133h.357a.714.714 0 0 0 .615-.355H9.997a.711.711 0 0 0 .615.355h.357v2.133h-.357a2.854 2.854 0 0 1-2.831-2.489H6.686a.357.357 0 0 0-.357.355v8.532c0 .196.16.355.357.355h19.989z"
                style="fill:var(--color4, #232c38)"
            ></path>
            <path
                fill="#232c38"
                d="M17.258 19.65v.001h.001l-.001-.001z"
                style="fill:var(--color4, #232c38)"
            ></path>
            <path
                fill="#232c38"
                d="m17.317 19.712.04.043c1.447-.84 3.162-.759 4.189.236.545.529.845 1.265.845 2.074 0 1.03-.475 2.081-1.304 2.885-.855.829-1.945 1.256-2.963 1.256-.803 0-1.561-.266-2.124-.812l.001-.002a3.468 3.468 0 0 1-.409.027c-1.018 0-2.108-.428-2.963-1.256-.829-.804-1.304-1.855-1.304-2.885 0-.809.3-1.545.845-2.074 1.276-1.237 3.558-1.037 5.087.445.021.02.04.041.059.063zm-.557.447c-.719-.697-1.629-1.06-2.463-1.06-.491 0-.952.131-1.337.388l4.485 4.348c.263-.362.403-.804.403-1.301 0-.839-.397-1.705-1.088-2.375zm-3.633 3.495c-.692-.67-1.088-1.536-1.088-2.375 0-.497.14-.939.403-1.3l4.486 4.35c-1.037.695-2.659.434-3.802-.674zm3.739 1.512c1.039.63 2.609.353 3.723-.726.692-.67 1.088-1.536 1.088-2.375 0-.497-.14-.939-.403-1.301l-.542.526-.498-.509.523-.507c-.784-.522-1.917-.506-2.931.042.448.641.703 1.369.73 2.093l1.253-1.214.498.51-1.924 1.865a2.729 2.729 0 0 1-.665 1.04 2.776 2.776 0 0 1-.851.558zM12.396 7.013h7.139v.711h-7.139v-.711zM20.249 7.013h.714v.711h-.714v-.711z"
                style="fill:var(--color4, #232c38)"
            ></path>
        </symbol>
        <symbol
            id="icon-feature-3"
            viewBox="0 0 32 32"
        >
            <path
                fill="#c7a17a"
                d="M5.333 18.551h11.571v7.359H5.333v-7.359z"
                style="fill:var(--color3, #c7a17a)"
            >
            </path>

            <path
                fill="#c7a17a"
                d="M16.904 20.759h9.763v-8.095H15.82v2.208h1.085v5.887z"
                style="fill:var(--color3, #c7a17a)"
            ></path>
            <path
                fill="#151d28"
                d="M27.228 7.318c0 .321-.142.607-.362.807v15.842c.221.2.362.486.362.807v1.455a1.09 1.09 0 0 1-1.087 1.091H15.637v-.037a1.8 1.8 0 0 1-.362.037H6.582a1.817 1.817 0 0 1-1.811-1.818V15.319a1.09 1.09 0 0 1 1.087-1.091h9.417V8.126a1.085 1.085 0 0 1-.362-.807V5.864A1.09 1.09 0 0 1 16 4.773h10.141c.599 0 1.087.49 1.087 1.091v1.455zm-.724-1.455c0-.2-.163-.364-.362-.364h-1.449v2.182h1.449c.2 0 .362-.163.362-.364V5.862zm-8.331-.364v2.182h1.449V5.499h-1.449zm2.173 0v2.182h1.449V5.499h-1.449zm3.622 0h-1.449v2.182h1.449V5.499zm-8.33.364v1.455c0 .2.163.364.362.364h1.449V5.5H16c-.2 0-.362.163-.362.364zM5.496 25.501a1.09 1.09 0 0 0 1.087 1.091h8.693a1.09 1.09 0 0 0 1.087-1.091v-8.365h-.724v-.727h.724v-1.091c0-.2-.163-.364-.362-.364H5.859c-.2 0-.362.163-.362.364v1.091h9.417v.727H5.497v8.365zm21.008.728v-1.455a.364.364 0 0 0-.362-.364h-9.055v1.091c0 .411-.142.786-.372 1.091h9.427c.2 0 .362-.163.362-.364zm-9.417-2.546h9.055V8.409H16v5.819c.599 0 1.087.49 1.087 1.091v8.364z"
                style="fill:var(--color5, #151d28)"
            ></path>
            <path
                fill="#151d28"
                d="M20.356 19.314c.837 0 1.759-.385 2.492-1.12 1.26-1.265 1.487-3.094.507-4.078s-2.802-.756-4.061.509c-1.259 1.265-1.487 3.094-.507 4.078.41.412.967.611 1.57.611zm1.98-1.634c-.854.857-2.003 1.14-2.744.729l3.471-3.485c.409.745.128 1.898-.727 2.756zm-.555-3.456c.28 0 .54.066.765.19l-3.467 3.481c-.409-.744-.128-1.898.727-2.756.595-.597 1.331-.915 1.975-.915zM9.152 20.08c-1.26 1.265-1.487 3.094-.507 4.078.41.412.967.611 1.57.611.837 0 1.759-.385 2.492-1.12 1.26-1.265 1.487-3.094.507-4.078s-2.802-.756-4.061.509zm.512.514c.595-.597 1.332-.915 1.975-.915.28 0 .54.066.765.19L8.937 23.35c-.409-.745-.127-1.898.727-2.756zm-.214 3.27c.741.411 1.89.128 2.744-.729s1.135-2.011.727-2.756L9.45 23.864z"
                style="fill:var(--color5, #151d28)"
            ></path>
        </symbol>
        <symbol
            id="icon-feature-4"
            viewBox="0 0 40 32"
        >
            <path
                fill="#c7a17a"
                d="M10.226 9.845v.212c0 1.624 1.065 3.137 2.827 4.015h8.884c1.762-.878 2.827-2.391 2.827-4.015v-.212H10.227z"
                style="fill:var(--color3, #c7a17a)"
            ></path>
            <path
                fill="#151d28"
                d="M30.882 4.772H9.836c-1.514 0-2.745.979-2.745 2.182s1.231 2.182 2.745 2.182v.947c0 1.473.758 2.849 2.072 3.837-.666.154-1.157.638-1.157 1.217 0 .544.434 1.006 1.04 1.188a.893.893 0 0 0-.125.449v.102l-1.181.313c-.936.248-1.564.941-1.564 1.725v2.267c0 .784.629 1.477 1.564 1.725l1.292.342a2.5 2.5 0 0 0 .854 1.163H8.92c-1.009 0-1.83.652-1.83 1.455s.821 1.455 1.83 1.455h22.876V9.01c1.064-.3 1.83-1.107 1.83-2.055 0-1.203-1.231-2.182-2.745-2.182zM20.817 5.863c0 .2-.205.364-.458.364h-4.575c-.252 0-.458-.163-.458-.364s.205-.364.458-.364h4.575c.252 0 .458.163.458.364zM8.006 6.954c0-.802.821-1.455 1.83-1.455h4.659a.89.89 0 0 0-.084.364c0 .602.616 1.091 1.373 1.091h4.575c.757 0 1.373-.489 1.373-1.091a.89.89 0 0 0-.084-.364h4.659c1.009 0 1.83.652 1.83 1.455s-.821 1.455-1.83 1.455H9.837c-1.009 0-1.83-.652-1.83-1.455zm18.301 7.273v-1.455h1.83v1.455h-1.83zm0 2.91h1.83v1.455h-1.83v-1.455zm0-.727v-1.455h1.83v1.455h-1.83zm-.915-4.365v7.273h2.745v5.091h-5.541c.595-.463.966-1.106.966-1.818v-5.819a.896.896 0 0 0-.125-.449c.606-.182 1.04-.644 1.04-1.188 0-.578-.491-1.062-1.157-1.217 1.314-.989 2.072-2.365 2.072-3.837v-.947h2.745v2.909h-2.745zm-.915-1.962c0 1.527-.949 2.931-2.538 3.781h-6.612v-1.091c0-1.003-1.026-1.818-2.288-1.818h-2.172a3.7 3.7 0 0 1-.116-.872v-.947h13.725v.947zm-13.359 1.599h1.921c.757 0 1.373.49 1.373 1.091v1.091H13.29c-1.01-.54-1.759-1.304-2.171-2.182zm11.757 2.909c.378 0 .686.245.686.546s-.308.546-.686.546H12.352c-.378 0-.686-.245-.686-.546s.308-.546.686-.546h10.523zM9.836 21.18v-2.267c0-.47.377-.886.938-1.035l.892-.236v4.81l-.892-.236c-.561-.149-.938-.566-.938-1.036zm2.746-4.407c0-.201.205-.364.458-.364h9.15c.252 0 .458.163.458.364v5.819c0 1.003-1.026 1.818-2.288 1.818h-5.49c-1.261 0-2.288-.816-2.288-1.818v-5.819zm18.3 9.819H8.922c-.505 0-.915-.326-.915-.727s.41-.727.915-.727h20.131V9.136h1.83v17.456zM28.347 8.409c.436-.387.705-.895.705-1.455s-.268-1.068-.705-1.455h2.535c1.009 0 1.83.652 1.83 1.455s-.821 1.455-1.83 1.455h-2.535z"
                style="fill:var(--color5, #151d28)"
            ></path>
            <path
                fill="#333"
                d="M20.817 17.137h.915v.727h-.915v-.727zM13.497 17.137h6.405v.727h-6.405v-.727z"
                style="fill:var(--color6, #333)"
            ></path>
        </symbol>
        <symbol
            id="icon-coffee-beans"
            viewBox="0 0 32 32"
        >
            <path
                d="M12.796 20.024c-1.799-3.063-1.804-6.247-1.621-7.729-4.215 2.006-6.738 6.312-5.04 10.173 1.999.199 4.802-.407 6.661-2.444z"
                style="fill:var(--color7, #415167)"
            ></path>
            <path
                d="M13.259 20.764c-1.642 1.742-4.462 2.725-6.614 2.595 1.965 2.838 7.193 4.086 11.901 1.347-2.016-.49-3.918-1.919-5.287-3.942z"
                style="fill:var(--color7, #415167)"
            ></path>
            <path
                d="M18.185 14.404c-2.816-3.119-3.05-6.096-2.663-8.05-2.909 1.668-4.33 5.944-3.19 10.303 1.272 4.982 5.793 8.752 10.034 6.854.132-1.399-.043-4.54-4.181-9.107z"
                style="fill:var(--color7, #415167)"
            ></path>
            <path
                d="M26.02 12.988c-1.293-4.965-5.61-8.396-9.541-7.071-.574 1.867-.493 4.87 2.348 7.928 1.289 1.516 4.475 5.108 4.415 9.176 2.612-1.837 3.832-5.892 2.778-10.034z"
                style="fill:var(--color7, #415167)"
            ></path>
        </symbol>
        <symbol
            id="icon-mountain"
            viewBox="0 0 32 32"
        >
            <path
                fill="#415167"
                d="M15.215 6.754c-.128-.223-.406-.331-.619-.354a.7.7 0 0 0-.607.375l-2.489 4.69 1.305 1.506 1.207-1.959c.257-.416.935-.416 1.191 0l1.207 1.959 1.417-1.674-2.613-4.544z"
                style="fill:var(--color7, #415167)"
            ></path>
            <path
                fill="#415167"
                d="m19 13.358-.413-.72-1.665 2.036c-.137.191-.337.316-.593.292a.699.699 0 0 1-.57-.335l-1.162-1.889-1.162 1.889a.699.699 0 0 1-.57.335l-.026.001a.698.698 0 0 1-.567-.292l-1.516-1.827-6.671 12.5c-.117.221-.111.489.016.705s.356.348.604.348h7.92a2.166 2.166 0 0 1 .136-1.768l6.241-11.274zM21.561 13.928c-.25-.449-.981-.449-1.231 0l-1.471 2.644 2.086 2.305 2.086-2.305-1.471-2.644z"
                style="fill:var(--color7, #415167)"
            ></path>
            <path
                fill="#415167"
                d="m27.909 25.336-4.18-7.46-2.267 2.557c-.134.162-.332.256-.54.256s-.406-.094-.54-.256l-2.267-2.557-4.134 7.46c-.123.221-.121.491.006.71s.357.353.607.353h12.703c.25 0 .481-.135.607-.353s.128-.489.006-.71z"
                style="fill:var(--color7, #415167)"
            ></path>
        </symbol>
        <symbol
            id="icon-right-arrow"
            viewBox="0 0 45 32"
        >
            <path
                fill="#f9fbff"
                d="M30.421.481c-.615-.642-1.64-.642-2.277 0a1.625 1.625 0 0 0 0 2.27l11.544 11.63H1.593c-.888.001-1.594.713-1.594 1.607s.706 1.629 1.594 1.629h38.095L28.144 29.225c-.616.642-.616 1.675 0 2.293.637.642 1.663.642 2.277 0l14.277-14.383a1.587 1.587 0 0 0 0-2.27L30.421.481z"
                style="fill:var(--color1, #f9fbff)"
            ></path>
        </symbol>

        <symbol
            id="icon-play"
            viewBox="0 0 22 22"
        >
            <path
                fill-rule="evenodd"
                clip-rule="evenodd"
                d="M19.4505 10.1284C20.1302 10.5107 20.1302 11.4893 19.4505 11.8716L6.49026 19.1617C5.82366 19.5367 5 19.055 5 18.2902L5 3.70985C5 2.94502 5.82366 2.46331 6.49026 2.83827L19.4505 10.1284Z"
                fill="#C7A17A"
            ></path>
        </symbol>
        <symbol
            id="icon-close"
            viewBox="0 0 31 32"
        >
            <path
                d="M18.071 15.298l11.894-11.894c0.774-0.774 0.774-2.025 0-2.798s-2.025-0.774-2.798 0l-11.894 11.894-11.894-11.894c-0.774-0.774-2.025-0.774-2.798 0s-0.774 2.025 0 2.798l11.894 11.894-11.894 11.894c-0.774 0.774-0.774 2.024 0 2.798 0.386 0.386 0.893 0.58 1.399 0.58s1.013-0.194 1.399-0.58l11.894-11.894 11.894 11.894c0.386 0.386 0.892 0.58 1.399 0.58s1.013-0.194 1.399-0.58c0.774-0.774 0.774-2.025 0-2.798l-11.894-11.894z"
            >
            </path>
        </symbol>
        <symbol
            id="insta"
            viewBox="0 0 448 512"
        >
            <path
                d="M224.1 141c-63.6 0-114.9 51.3-114.9 114.9s51.3 114.9 114.9 114.9S339 319.5 339 255.9 287.7 141 224.1 141zm0 189.6c-41.1 0-74.7-33.5-74.7-74.7s33.5-74.7 74.7-74.7 74.7 33.5 74.7 74.7-33.6 74.7-74.7 74.7zm146.4-194.3c0 14.9-12 26.8-26.8 26.8-14.9 0-26.8-12-26.8-26.8s12-26.8 26.8-26.8 26.8 12 26.8 26.8zm76.1 27.2c-1.7-35.9-9.9-67.7-36.2-93.9-26.2-26.2-58-34.4-93.9-36.2-37-2.1-147.9-2.1-184.9 0-35.8 1.7-67.6 9.9-93.9 36.1s-34.4 58-36.2 93.9c-2.1 37-2.1 147.9 0 184.9 1.7 35.9 9.9 67.7 36.2 93.9s58 34.4 93.9 36.2c37 2.1 147.9 2.1 184.9 0 35.9-1.7 67.7-9.9 93.9-36.2 26.2-26.2 34.4-58 36.2-93.9 2.1-37 2.1-147.8 0-184.8zM398.8 388c-7.8 19.6-22.9 34.7-42.6 42.6-29.5 11.7-99.5 9-132.1 9s-102.7 2.6-132.1-9c-19.6-7.8-34.7-22.9-42.6-42.6-11.7-29.5-9-99.5-9-132.1s-2.6-102.7 9-132.1c7.8-19.6 22.9-34.7 42.6-42.6 29.5-11.7 99.5-9 132.1-9s102.7-2.6 132.1 9c19.6 7.8 34.7 22.9 42.6 42.6 11.7 29.5 9 99.5 9 132.1s2.7 102.7-9 132.1z"
            />
        </symbol>
        <symbol
            id="ytube"
            viewBox="0 0 576 512"
        >
            <path
                d="M549.655 124.083c-6.281-23.65-24.787-42.276-48.284-48.597C458.781 64 288 64 288 64S117.22 64 74.629 75.486c-23.497 6.322-42.003 24.947-48.284 48.597-11.412 42.867-11.412 132.305-11.412 132.305s0 89.438 11.412 132.305c6.281 23.65 24.787 41.5 48.284 47.821C117.22 448 288 448 288 448s170.78 0 213.371-11.486c23.497-6.321 42.003-24.171 48.284-47.821 11.412-42.867 11.412-132.305 11.412-132.305s0-89.438-11.412-132.305zm-317.51 213.508V175.185l142.739 81.205-142.739 81.201z"
            />
        </symbol>
        <symbol
            id="facebook"
            viewBox="0 0 512 512"
        >
            <path
                d="M504 256C504 119 393 8 256 8S8 119 8 256c0 123.78 90.69 226.38 209.25 245V327.69h-63V256h63v-54.64c0-62.15 37-96.48 93.67-96.48 27.14 0 55.52 4.84 55.52 4.84v61h-31.28c-30.8 0-40.41 19.12-40.41 38.73V256h68.78l-11 71.69h-57.78V501C413.31 482.38 504 379.78 504 256z"
            />
        </symbol>
    </defs>
</svg>
